<?xml version="1.0" encoding="utf-8"?>
<!-- Generator: Adobe Illustrator 18.1.1, SVG Export Plug-In . SVG Version: 6.00 Build 0)  -->
<!DOCTYPE svg PUBLIC "-//W3C//DTD SVG 1.1//EN" "http://www.w3.org/Graphics/SVG/1.1/DTD/svg11.dtd">
<svg version="1.1" id="Layer_1" xmlns="http://www.w3.org/2000/svg" xmlns:xlink="http://www.w3.org/1999/xlink" x="0px" y="0px"
	 viewBox="424.9 0 650.2 190" enable-background="new 424.9 0 650.2 190" xml:space="preserve">
<g id="Logo">
	<g>
		<path fill="#3F3D3F" d="M927.6,147.5c-0.9,0-1.4,0-2,0.6c-0.6,0.3-1.1,0.9-1.4,1.4c-0.3,0.6-0.6,1.1-0.6,1.7
			c0,1.1,0.3,2.3,0.9,2.9s1.4,1.1,2.3,1.1c0.9,0,1.7,0,2.3-0.6c0.6-0.3,1.1-0.9,1.1-1.4c0.3-0.6,0.6-1.1,0.6-1.7
			c0-1.1-0.3-2-0.9-2.9C929.3,148.1,928.4,147.8,927.6,147.5z"/>
		<path fill="#3F3D3F" d="M630.3,146.9c0.9-0.6,1.1-1.4,1.1-2.6c0-1.4-0.6-2.3-1.4-2.6c-0.9-0.6-2.3-0.6-4.3-0.6c-0.6,0-1.1,0-1.7,0
			c0,2.3,0.3,4.6,0.3,6.6c0.6,0,1.1,0,1.7,0C628.3,147.8,629.5,147.5,630.3,146.9z"/>
		<path fill="#3F3D3F" d="M628,152.3c-1.1,0-2.3,0-3.4,0c0,2.3,0.3,4.8,0.3,7.1c1.1,0,2.3,0,3.4-0.3c3.4-0.3,5.1-1.4,4.8-3.7
			C633.5,153.2,631.5,152.1,628,152.3z"/>
		<path fill="#3F3D3F" d="M584.1,156.1c2.6-0.3,5.4-0.3,8-0.6c-1.4-3.4-3.1-6.6-4.6-9.7C586.4,149.2,585.2,152.6,584.1,156.1z"/>
		<path fill="#3F3D3F" d="M426.6,142.9c1.7,15.7,3.4,31.4,5.1,47.1c205.1-23.1,412-23.1,616.8,0c1.7-15.7,3.4-31.4,5.1-47.1
			C845.1,119.2,634.9,119.2,426.6,142.9z M472.6,176.3c-0.9-9.1-2-18.3-3.1-27.4c6.8-0.9,13.7-1.4,20.5-2.3c0.3,2,0.3,3.7,0.6,5.4
			c-4,0.3-8,0.9-12.3,1.1c0.3,1.7,0.3,3.4,0.6,5.1c3.7-0.3,7.7-0.9,11.4-1.1c0.3,1.7,0.3,3.7,0.6,5.4c-3.7,0.3-7.7,0.9-11.4,1.1
			c0.3,2,0.3,4,0.6,5.7c4.3-0.6,8.3-0.9,12.3-1.1c0.3,1.7,0.3,3.7,0.6,5.4C486.3,174.9,479.4,175.5,472.6,176.3z M524.2,167.5
			c-0.9,1.4-2,2.3-3.4,3.1c-1.4,0.9-3.1,1.1-5.4,1.4c-0.6,0-1.1,0-2,0c-0.9,0-2,0-3.4-0.3s-2.9-0.6-4.3-1.1
			c-0.3-2.3-0.3-4.6-0.6-6.8c1.4,0.9,2.9,1.4,4.3,1.7c1.4,0.6,2.9,0.6,4.3,0.6c1.4,0,2.3-0.6,2.6-0.9c0.3-0.6,0.6-0.9,0.6-1.4
			c0-0.9-0.6-1.4-1.1-1.7c-0.9-0.6-2-0.9-3.1-1.4c-1.7-0.6-2.9-1.1-4.3-1.7c-1.1-0.6-2.3-1.4-3.1-2.6s-1.4-2.3-1.4-4
			c0-1.4,0-2.9,0.9-4c0.6-1.1,1.7-2.3,3.1-3.1s3.1-1.4,5.4-1.7c1.4,0,2.9,0,4.3,0c1.4,0.3,2.3,0.3,3.4,0.9c0.9,0.3,1.4,0.6,1.7,0.6
			c0.3,2.3,0.3,4.3,0.6,6.6c-1.1-0.3-2.6-0.9-4-1.4c-1.4-0.6-2.9-0.6-4.6-0.6c-1.1,0-1.7,0.3-2.3,0.9c-0.6,0.6-0.6,0.9-0.6,1.4
			s0.3,0.9,0.9,1.4c0.6,0.3,1.4,0.9,2.6,1.1c2.3,0.9,4,1.4,5.4,2.3c1.4,0.6,2.3,1.4,3.1,2.6c0.9,0.9,1.4,2.3,1.4,3.7
			C525.3,164.6,525.1,166,524.2,167.5z M555.9,168.6c-2.9,0.3-5.4,0.3-8.3,0.6c-0.6-6.8-1.1-14-1.7-20.8c-3.4,0.3-6.8,0.6-10,0.9
			c-0.3-2.3-0.3-4.6-0.6-6.6c9.4-0.9,19.1-1.7,28.5-2.3c0.3,2.3,0.3,4.6,0.6,6.6c-3.4,0.3-6.8,0.6-10,0.9
			C554.7,154.6,555.3,161.5,555.9,168.6z M596.9,165.8c-0.9-2-1.7-3.7-2.6-5.4c-4,0.3-8,0.6-12,0.9c-0.6,2-1.1,3.7-2,5.7
			c-2.9,0.3-5.7,0.3-8.6,0.6c3.4-9.4,6.8-18.8,10.3-28.5c3.1-0.3,6.3-0.3,9.1-0.6c4.6,8.8,9.1,18,13.7,26.8
			C602.4,165.5,599.8,165.5,596.9,165.8z M639.7,161.5c-1.7,1.4-3.7,2.3-6.8,2.3c-5.4,0.3-10.6,0.6-16,0.9
			c-0.6-9.1-0.9-18.5-1.4-27.7c4.6-0.3,8.8-0.6,13.4-0.6c1.7,0,3.1,0,4.6,0.3c1.4,0.3,2.3,0.6,3.1,1.1c0.9,0.6,1.4,1.1,1.7,2
			s0.6,1.7,0.6,2.6c0,1.1,0,2-0.6,2.9c-0.3,0.9-0.9,1.7-1.4,2.3c-0.6,0.6-1.1,0.9-1.7,1.1c2,0.6,3.4,1.7,4.3,2.6
			c1.1,1.1,1.7,2.6,1.7,4.3C642,158,641.2,160,639.7,161.5z M655.4,162.9c-0.3-9.1-0.6-18.5-0.9-27.7c2.9,0,5.7-0.3,8.3-0.3
			c0.3,7.1,0.3,14,0.6,21.1c4.3,0,8.3-0.3,12.6-0.3c0,2.3,0,4.3,0.3,6.6C669.4,162.6,662.3,162.9,655.4,162.9z M689.4,162
			c-0.3-9.1-0.3-18.5-0.6-27.7c2.9,0,5.7,0,8.3,0c0,9.1,0.3,18.5,0.6,27.7C694.8,162,691.9,162,689.4,162z M730.5,158
			c-0.9,1.1-2,2.3-3.7,2.9c-1.7,0.6-3.4,1.1-5.4,1.1c-0.6,0-1.1,0-2,0c-0.9,0-2-0.3-3.4-0.6c-1.4-0.3-2.9-0.9-4.3-1.4
			c0-2.3,0-4.6,0-6.8c1.4,0.9,2.9,1.4,4,2c1.4,0.6,2.9,0.9,4.3,0.9s2.3-0.3,2.9-0.9c0.3-0.6,0.6-0.9,0.6-1.4c0-0.9-0.3-1.4-1.1-2
			c-0.6-0.6-1.7-1.1-3.1-1.7c-1.4-0.6-2.9-1.4-4-2c-1.1-0.9-2-1.7-2.9-2.9c-0.9-1.1-1.1-2.6-1.1-4s0.3-2.9,1.1-4
			c0.9-1.1,1.7-2.3,3.4-2.9c1.4-0.9,3.4-1.1,5.4-1.1c1.4,0,3.1,0.3,4.3,0.3c1.4,0.3,2.3,0.6,3.4,1.1c0.9,0.3,1.4,0.6,1.7,0.9
			c0,2,0,4.3,0,6.6c-1.1-0.9-2.3-1.4-3.7-2.3c-1.4-0.6-2.9-0.9-4.6-0.9c-1.1,0-1.7,0.3-2.3,0.6c-0.6,0.6-0.6,0.9-0.6,1.4
			s0.3,1.1,0.6,1.4c0.6,0.3,1.4,0.9,2.6,1.4c2,0.9,4,2,5.1,2.6c1.1,0.9,2.3,1.7,3.1,2.9c0.9,1.1,1.1,2.3,1.1,4
			C731.6,155.2,731.3,156.9,730.5,158z M774.4,162c-2.9,0-5.4,0-8.3,0c0-3.7,0-7.1,0-10.8c-4.3,0-8.3,0-12.6-0.3c0,3.7,0,7.1,0,10.8
			c-2.9,0-5.4,0-8.3,0c0-9.1,0-18.5,0-27.7c2.9,0,5.7,0,8.3,0c0,3.4,0,6.8,0,10.3c4.3,0,8.3,0,12.6,0c0-3.4,0-6.8,0-10
			c2.9,0,5.4,0,8.3,0C774.7,143.5,774.7,152.6,774.4,162z M810.3,140.6c-4,0-8-0.3-12.3-0.3c0,1.7,0,3.4,0,5.1c4,0,7.7,0.3,11.7,0.3
			c0,2,0,3.7-0.3,5.7c-4,0-7.7-0.3-11.7-0.3c0,2,0,4-0.3,6c4.3,0,8.3,0.3,12.6,0.3c0,2,0,3.7-0.3,5.7c-6.8-0.3-13.7-0.3-20.8-0.6
			c0.3-9.1,0.3-18.5,0.6-27.7c6.8,0,13.7,0.3,20.5,0.6C810.3,136.9,810.3,138.9,810.3,140.6z M850.6,158c-1.1,1.7-2.3,1.7-3.7,2.9
			c-2,1.4-4.8,0.6-8.3,0.6h-0.3c-4.8,0-9.7,0.9-14.3,0.9c0.3-9.1,0.6-17.7,1.1-27.1c3.7,0,7.7,0.6,11.4,0.9c1.7,0,3.1,0.3,4.6,0.6
			c1.1,0.3,2.3,0.6,3.4,1.1c0.9,0.3,1.7,0.9,2.6,1.1c0.6,0.6,1.1,0.9,1.7,1.4c0.9,0.9,1.7,1.7,2.3,2.9s1.1,2.3,1.4,3.7
			c0.3,1.4,0.6,2.9,0.3,4.6C852.3,154.1,851.7,156.3,850.6,158z M897.3,167.2c-2.6-0.3-4.8-0.3-7.4-0.6c0.6-9.1,1.1-18.5,1.7-27.7
			c2.6,0,5.1,0.3,7.7,0.6C898.8,148.6,898.2,158,897.3,167.2z M937.9,153.2c-0.3,2-0.9,4-1.7,6c-1.1,2-2.6,4-4.3,5.7
			c-1.7,1.7-3.7,3.4-6.3,4.8c-2.3-0.9-4.3-2-6.6-2.9c3.4-2.6,5.7-4.8,7.4-6.8c-0.6,0-1.1,0-1.7,0c-1.7,0-3.1-0.6-4.3-1.4
			c-1.4-0.9-2.3-2-3.1-3.4c-0.6-1.4-0.9-3.1-0.9-4.8c0-1.1,0.6-2.6,1.1-3.7c0.6-1.1,1.4-2.3,2.3-3.1c1.1-0.9,2.3-1.4,3.7-2
			c1.4-0.3,2.9-0.6,4.3-0.6c1.7,0,3.4,0.6,4.6,1.1c1.4,0.9,2.6,1.7,3.1,2.6c0.9,1.1,1.4,2.3,1.7,3.7
			C937.9,150.3,938.1,151.8,937.9,153.2z M967.8,151.2c-3.4-0.3-6.6-1.7-10-2c0,1.4-0.3,3.7-0.6,3.7h0.6h0.6c0,0,0.3,1.1,0.6,1.1
			c1.7,0,3.4,1.1,4.8,2.3c1.4,0.9,2.3,2.3,2.9,3.7c0.6,1.4,0.9,2.9,0.9,4.6c-0.3,1.7-0.6,3.1-1.4,4.3c-0.9,1.4-2,2.3-3.7,3.1
			c-1.4,0.6-3.4,0.9-5.4,0.9c-1.7,0-3.4-0.6-4.8-1.1s-2.9-1.4-4-2.3c0.3-2,0.3-4,0.6-6c0.9,0.6,2,1.4,3.4,2.3s2.9,1.1,4,1.4
			c1.4,0,2.3,0,2.9-0.9c0.6-0.6,0.9-1.4,1.1-2c0-0.6,0-1.1-0.3-1.7c-0.3-0.6-0.9-1.1-1.4-1.4c-0.9-0.6-1.7-0.6-3.1-0.9
			s-2.9,0-4.3,0.3c0.6-5.4,0.9-10.8,1.4-16c5.4,0.6,10.6,0.9,16,1.4C968.1,147.2,968.1,149.2,967.8,151.2z M1000.3,155.8
			c0,0.9-0.3,1.7-0.9,2.3c-0.6,0.9-1.1,1.4-1.7,2c-0.6,0.6-1.4,1.1-2,1.4c1.1,0.6,2,1.7,2.6,2.9c0.9,1.1,1.1,2.6,0.9,4.6
			c0,1.4-0.6,2.6-1.1,3.7c-0.6,0.9-1.4,1.7-2.6,2.3c-0.9,0.6-2,0.9-3.1,1.1c-1.1,0.3-2,0.3-3.1,0c-1.4,0-2.9-0.6-4.6-1.1
			s-2.9-1.1-4-1.7c0.3-2,0.3-4,0.6-6.3c0.9,0.9,1.7,1.7,2.9,2.3s2,0.9,3.1,1.1c0.9,0,1.7,0,2.3-0.3c0.6-0.3,1.1-0.6,1.4-1.1
			c0.3-0.6,0.6-0.9,0.6-1.4s0-1.4-0.3-2c-0.3-0.6-0.9-1.1-1.4-1.4c-0.6-0.3-1.4-0.6-2.3-0.9c-0.3,0-0.6,0-0.9,0
			c0.3-1.4,0.3-2.9,0.6-4.6c0.3,0,0.6,0,1.1,0c0.9,0,1.7,0,2.3-0.3s1.1-0.6,1.4-1.1c0.3-0.6,0.6-0.9,0.6-1.4c0-0.9,0-1.7-0.6-2.3
			c-0.6-0.9-1.4-1.1-2.3-1.1c-0.9,0-2,0-2.9,0.3c-1.1,0.3-2,0.6-2.9,1.1c0.3-1.7,0.3-3.4,0.6-5.1c1.4-0.3,2.6-0.6,3.7-0.9
			c1.1-0.3,2.6-0.3,4,0c2,0.3,3.7,0.9,5.1,1.7c1.4,0.9,2.3,2,2.9,3.4C1000.3,153.5,1000.6,154.6,1000.3,155.8z"/>
		<path fill="#3F3D3F" d="M840,142.4c-1.1-0.6-2.3-0.9-3.7-0.9c-1.1,0-2.3,0-3.4,0c-0.3,5.4-0.6,10.8-0.6,16.3c1.1,0,2.3,0,3.4,0
			c2.3,0,4-0.3,5.7-1.4c1.7-0.9,2.6-3.1,2.6-6.3c0-2.3-0.3-4-1.1-5.4C842.3,143.8,841.1,142.9,840,142.4z"/>
	</g>
	<g>
		<path fill="#3F3D3F" d="M938.4,36.2c-0.9,12.8-8.8,24.5-25.4,23.7h-2.3v0.9c0.6,0.3,1.1,0.3,2,0.6l2.3,0.3
			c16.5,1.1,24.5-10.8,25.4-23.4c0.6-8-1.7-16.5-9.4-22.3C937,20.8,938.7,28.8,938.4,36.2z"/>
		<path fill="#3F3D3F" d="M810.1,59.3l5.7,0.3c2.9,0,4.8,0.6,6.3,1.4c-1.1-1.4-3.4-2.6-8-2.9l-5.7-0.3l-1.1,41.9h1.7L810.1,59.3z"/>
		<path fill="#3F3D3F" d="M829.5,70.8h4l0.9-30h-1.7l-0.9,28.5h-4c-0.6,0-1.1,0-1.4-0.3C826.9,69.9,827.7,70.5,829.5,70.8z"/>
		<path fill="#3F3D3F" d="M783.5,10c0.6,1.4,2.3,1.4,3.7,2C786.1,10.6,784.7,10.3,783.5,10z"/>
		<path fill="#3F3D3F" d="M822.6,11.7l-13.1-0.3l-1.1,38.2h1.7l1.1-36.8l13.1,0.3c4,0,6.6,0.9,8.6,2.3
			C831.2,13.4,827.7,12,822.6,11.7z"/>
		<path fill="#3F3D3F" d="M722.2,7.4c0,4.3-6.8,0-6.8,8.3l0.3,28.8l1.7-2V17.1c0-8.3,6.8-4,6.6-8.3V4.3h-1.7V7.4z"/>
		<path fill="#3F3D3F" d="M847.1,33.4h-3.4c-0.9,0-1.7-0.3-2.3-0.6c0.9,1.1,2,2,4,2h3.4L849.7,4c-0.6,0.3-1.1,0.6-2,0.6L847.1,33.4z
			"/>
		<path fill="#3F3D3F" d="M741.9,12.3c-0.6-1.1-2-1.4-3.4-2C739.3,11.4,740.7,11.7,741.9,12.3z"/>
		<path fill="#3F3D3F" d="M765.8,7.1c0,4.8-5.7,0.9-12,8.3l-21.7,24.5l27.1,47.9c3.1,5.4,6,8,8,9.7c-1.7-1.7-4-4-6.3-8.3l-27.1-48.2
			l21.7-24.5c6.6-7.4,12.3-3.7,12.3-8.3V3.7h-1.7L765.8,7.1z"/>
		<path fill="#3F3D3F" d="M718.2,54.8l-2.3,2.9l0.3,35.9c0,3.7,1.4,4.8,2.9,5.4c-0.6-0.9-0.9-2-0.9-4l-0.3-35.9l1.7-2.3L718.2,54.8z
			"/>
		<path fill="#3F3D3F" d="M689.1,10c0.6,1.7,2.3,1.4,4,2C692.2,10.6,690.5,10.3,689.1,10z"/>
		<path fill="#3F3D3F" d="M895.6,55.1c0.6,0,1.1,0,2,0l2.3-38.5c5.4,0.6,10,0.9,12.8,2.9c-3.1-3.1-8-3.7-14.8-4.3L895.6,55.1z"/>
		<path fill="#3F3D3F" d="M1044.8,53.3l4.3,0.6l3.1-30.8l-1.7-0.3l-3.1,29.4l-4.3-0.6c-0.6,0-1.1-0.3-1.4-0.3
			C1042.3,52.5,1043.4,53.1,1044.8,53.3z"/>
		<path fill="#3F3D3F" d="M1003.8,112.4c-8.8-8.3-5.7-25.4-12.3-28.5C995.8,89.3,993.5,105.8,1003.8,112.4z"/>
		<path fill="#3F3D3F" d="M1022.9,23.4c-7.7-0.9-13.1,3.7-14,11.1c-0.9,6.8,3.1,11.7,8.6,16c-4.6-4-7.7-8.3-6.8-14.5
			c0.9-7.4,6.6-12,14-11.1c2.3,0.3,4.3,0.9,5.7,2C1028.6,24.8,1026,23.7,1022.9,23.4z"/>
		<path fill="#3F3D3F" d="M1023.2,82.4c-6-5.1-14.3-8.8-21.4-14.3C1008.3,73.6,1016.6,77.6,1023.2,82.4z"/>
		<path fill="#3F3D3F" d="M895.1,62.8l-2,35.4c-0.3,3.7,1.1,4.8,2.6,5.7c-0.6-0.9-0.9-2.3-0.9-4.3l2-35.4c0.6,0,1.1,0.3,1.7,0.6
			C897.6,63.3,896.5,63,895.1,62.8z"/>
		<path fill="#3F3D3F" d="M872,12.6c0.6,1.4,2,1.4,3.4,2C874.5,13.4,873.1,13.1,872,12.6z"/>
		<path fill="#3F3D3F" d="M959.5,33.1c1.4,1.4,3.4,2.3,4.6,3.1C963.5,35.1,961.5,34.5,959.5,33.1z"/>
		<path fill="#3F3D3F" d="M925.6,74.5c-2-4.8-3.4-7.7-6.6-10c2,2,3.1,4.6,4.8,8.6l12.3,28c1.7,4.3,4,6,5.4,7.1
			c-1.1-1.1-2.6-2.9-3.7-5.7L925.6,74.5z"/>
		<path fill="#3F3D3F" d="M587.5,13.7c0.6,1.7,2.6,1.4,4.3,2C590.7,14.3,589,14,587.5,13.7z"/>
		<path fill="#3F3D3F" d="M722.8,101.3c0,0.3,0,0.6,0,0.9l0.3,4.6l-32.8,0.3v1.4l34.8-0.3l-0.3-4.6
			C724.8,102.1,723.6,101.6,722.8,101.3z"/>
		<polygon fill="#3F3D3F" points="850.6,108.7 780.7,106.7 780.7,108.1 852.3,110.1 853.1,79 851.4,79 		"/>
		<path fill="#3F3D3F" d="M771,100.4c0.6,0.6,0.6,1.4,0.9,2.6v3.4l-37.7,0.3v1.4l39.4-0.3v-3.4C773.5,102.1,772.4,101.6,771,100.4z"
			/>
		<path fill="#3F3D3F" d="M670,5.1v3.1c0.3,4.3-6.8,0.3-6.6,8.6l2.6,61.3c1.1,21.7-9.1,32-35.4,33.1c-11.1,0.6-19.4-1.4-25.1-5.7
			c5.7,5.1,14.5,7.7,26.8,7.1c26.2-1.1,36.2-11.1,35.4-33.1L665.4,18c-0.3-8.3,6.6-4.3,6.6-8.6l-0.3-4.6L670,5.1z"/>
		<path fill="#3F3D3F" d="M1039.1,65c7.1,6,12.6,14,11.1,26.2c-1.7,15.1-14,34.2-38.2,31.7c-12-1.4-18-7.1-20.3-7.1
			c-1.4-0.3-2.6,0.6-3.1,1.7l-5.7-0.6v1.1l7.7,0.9c0.6-1.4,1.4-2,3.1-1.7c2.3,0.3,8.3,6,20.3,7.1c24.2,2.6,36.8-16.5,38.2-31.7
			C1053.4,79.3,1047.1,71.3,1039.1,65z"/>
		<path fill="#3F3D3F" d="M973,13.1c3.1,3.1,4,8,3.7,12.3c-0.9,10.6-6,18-18.5,28l1.4,1.7c12.8-10,18-17.7,19.1-28.2
			C978.7,22,977.5,16,973,13.1z"/>
		<polygon fill="#3F3D3F" points="581,81.6 583,111.3 519.1,116.1 519.3,117.5 585,112.7 582.7,81.6 		"/>
		<path fill="#3F3D3F" d="M943.6,109.5c0,0.3,0,0.3,0,0.6l-0.3,4l-24.2-1.4l0.6,1.4l25.4,1.7l0.3-4
			C945.3,110.7,944.7,110.4,943.6,109.5z"/>
		<path fill="#3F3D3F" d="M899.1,105.8c0,0.3,0.3,0.6,0,0.9l-0.3,4.6l-33.1-2v1.4l34.8,2l0.3-4.6
			C901.1,106.7,900.2,106.1,899.1,105.8z"/>
		<path fill="#3F3D3F" d="M621.8,10c0.3,4.3-6.8,0.3-6.3,8.6l2.3,58.8c0.3,10.3,2,17.7,7.7,21.4c-4.3-4-5.4-10.8-6-20L617.2,20
			c-0.3-8.3,6.6-4.3,6.3-8.6l-0.3-4.6h-1.7L621.8,10z"/>
		<path fill="#3F3D3F" d="M545,14.5c0.3,4.3-6.8,0.6-6,8.8l6.3,83h1.7l-6.3-81.6c-0.6-8.3,6.6-4.6,6-8.8l-0.3-4.6h-1.7L545,14.5z"/>
		<path fill="#3F3D3F" d="M468.3,71.3l-6.8,0.9l3.7,36.2c0.3,3.1,1.4,4.3,2.9,4.8c-0.6-0.9-0.9-1.7-1.1-3.4l-4-36.5l6.8-0.9
			c3.4-0.3,5.4,0,6.8,0.9C475.7,71.9,473.1,70.8,468.3,71.3z"/>
		<path fill="#3F3D3F" d="M512.2,19.4c0.6,1.7,2.6,1.4,4.3,2C515.4,19.7,513.6,19.7,512.2,19.4z"/>
		<path fill="#3F3D3F" d="M648.3,11.1c0.6,1.7,2.6,1.4,4.3,2C651.1,11.7,649.4,11.7,648.3,11.1z"/>
		<path fill="#3F3D3F" d="M469.7,24.2l-13.1,1.4l4,37.9l1.7-0.3l-4-36.2l13.4-1.4c4.6-0.6,7.7,0.3,10,1.7
			C479.4,25.1,475.7,23.7,469.7,24.2z"/>
		<path fill="#3F3D3F" d="M484.5,51.9l3.1,28.2l-4,0.6c-0.9,0-1.4,0-2,0c0.6,1.1,1.7,1.7,3.7,1.4l4-0.6l-3.1-30L484.5,51.9z"/>
		<path fill="#3F3D3F" d="M430.1,27.7c0.6,2,2.9,1.4,4.6,2C433.5,28,431.5,28,430.1,27.7z"/>
		<path fill="#3F3D3F" d="M493.7,14.3l3.1,28.2l-3.4,0.3c-1.1,0-2,0-2.9-0.3c1.1,1.4,2.6,2,4.6,1.7l3.4-0.3l-3.1-30.5
			C494.8,13.7,494.2,14,493.7,14.3z"/>
		<path fill="#3F3D3F" d="M473.7,115.5c0,0.3,0,0.3,0,0.6l0.6,4.6l-34.2,3.7l0.3,1.7l35.9-4l-0.6-4.6
			C475.4,116.1,474.8,115.5,473.7,115.5z"/>
	</g>
	<path fill="#70953E" d="M432.9,30.2c-0.9-8.3-7.1-3.1-7.4-7.4l-0.6-4.6l49.9-5.4c6-0.6,12-1.4,16-3.7l3.1,30.5l-3.4,0.3
		c-10.6,1.1-3.4-20.5-23.4-18.5l-13.4,1.4l4,37.9l6.8-0.9c14-1.4,5.4-11.4,12.8-12.3l4-0.6l3.4,30l-4,0.6
		c-7.7,0.9-1.1-10.8-15.1-9.1l-6.8,0.9l3.7,36.2c0.9,8.3,8.3,3.1,8.6,7.4l0.6,4.6l-35.9,4l-0.3-4.6c-0.6-4.3,6.8-0.9,6-9.1
		L432.9,30.2z"/>
	<path fill="#70953E" d="M514.8,22c-0.6-8.3-7.1-3.4-7.4-7.7l-0.3-4.6l34.8-2.6l0.3,4.6c0.3,4.3-6.8,0.6-6,8.8l6.3,83l8.3-0.6
		c15.1-1.1,17.4-8.3,18.3-14.5c0.6-4.3,0-10.6,5.7-10.8l3.4-0.3l2.3,31.1l-65.6,4.8l-0.3-4.6c-0.3-4.3,6.8-0.6,6-8.8L514.8,22z"/>
	<path fill="#70953E" d="M618.9,2.6v4.6c0.3,4.3-6.8,0.3-6.6,8.6l2.3,58.8c0.6,15.7,4,24.8,19.7,24.2c15.4-0.6,18.8-8.3,18.3-23.1
		l-2-61.3c-0.3-8.3-6.8-3.7-7.1-8l-0.3-4.6l23.7-0.9l0.6,4.3c0.3,4.3-6.8,0.3-6.3,8.6l2.6,61.3c0.9,22-9.1,32-35.4,33.1
		c-24.2,1.1-34.5-9.4-35.4-29.1l-2.9-62.5c-0.3-8.3-6.8-3.7-7.1-8L582.7,4L618.9,2.6z"/>
	<path fill="#70953E" d="M713.1,41.9l23.7-27.1c2-2.3,2.9-3.7,2.9-4.8c0-2.9-5.7-2-5.7-5.4V0l29.4-0.3v4.6c0,4.8-5.4,0.9-12.3,8.3
		l-21.7,24.5L756.4,85c7.4,13.1,12.6,9.7,12.8,15.1v3.4l-39.4,0.3v-4.6c0-3.1,6.3-3.4,6.3-6.8c0-2-1.4-4.6-2.6-6.6l-18-33.9
		l-2.3,2.9l0.3,35.9c0,8.3,6.8,4,6.8,8.3v4.6l-35.1,0.3v-4.6c0-4.3,6.8,0,6.8-8.3l-0.9-77.9c0-8.3-6.8-4-6.8-8.3V0.3L719.3,0v4.6
		c0,4.3-6.8,0-6.8,8.3L713.1,41.9z"/>
	<path fill="#70953E" d="M785.2,13.1c0.3-8.3-6.6-4.3-6.6-8.6V0l49.9,1.4c6,0.3,12,0.3,16.3-1.7l-0.6,30.8h-3.4
		c-10.6-0.3-0.6-21.1-20.8-21.4l-13.1-0.6l-1.1,38.2h5.7c14,0.3,6.8-10.6,14.3-10.6h4l-0.9,30l-4-0.3c-7.7-0.3,0.3-10.8-13.7-11.1
		l-5.7-0.3L804.6,97l14.3,0.3c15.1,0.3,18.3-6.3,19.7-12.6c0.9-4.3,1.1-10.3,6.8-10.3h3.4l-0.9,31.1l-71.6-2V99c0-4.3,6.8,0,7.1-8
		L785.2,13.1z"/>
	<path fill="#70953E" d="M873.7,16c0.6-8.3-6.6-4.3-6.3-8.6l0.3-4.6l39.7,2.6c23.1,1.4,29.1,15.7,28.2,28
		c-0.9,12.8-8.8,24.5-25.4,23.7h-2.3v0.9c8.6,2.3,10,5.4,13.1,12.6l12.3,28c3.4,8.3,7.7,7.1,7.7,9.1l-0.3,4l-25.4-1.7l-17.1-44.5
		c-1.4-3.7-2.9-5.1-5.4-5.4l-2,35.4c-0.6,8.3,6.6,4.3,6.3,8.6l-0.3,4.6l-35.4-2l0.3-4.6c0.3-4.3,6.8,0.6,7.1-8L873.7,16z
		 M892.8,52.2c12.8,0.6,19.7,0,20.5-18.8c1.1-18.8-5.4-20-18.3-21.1L892.8,52.2z"/>
	<path fill="#70953E" d="M950.4,45.9c6-4.6,10.8-10.3,11.1-12c0.3-2.9-11.1-3.1-10-15.7c0.3-4.8,3.7-12,12-11.1
		c8.6,0.9,10.8,8.8,10.3,15.4c-0.9,10.6-6.3,18.3-19.1,28.2L950.4,45.9z"/>
	<path fill="#70953E" d="M982.1,78.7l3.1,0.3c10.8,1.1,1.4,30.8,24,33.4c10.8,1.1,17.7-6,18.8-16c2.9-26-44.8-23.4-41.4-57.6
		c1.7-16.3,16.5-28,32.5-26.2c11.1,1.1,14.8,6.8,17.7,7.4c2.6,0.3,3.4-0.9,4.3-1.7l6.8,0.9l-3.1,30.8l-4.3-0.6
		c-9.7-1.1-3.1-26.8-20.3-28.5c-7.7-0.9-13.1,3.7-14,11.1c-2.6,22.8,45.1,22.3,41.4,56.8c-1.7,15.1-14,34.2-38.5,31.7
		c-12-1.1-18-7.1-20.3-7.1c-1.4-0.3-2.6,0.6-3.1,1.7l-7.7-0.9L982.1,78.7z"/>
	<path fill="#3F3D3F" d="M1067.1,30.8c4.3,0,8-3.4,8-8s-3.7-8-8-8s-8,3.4-8,8C1059.1,27.7,1062.8,30.8,1067.1,30.8 M1060.5,22.8
		c0-3.7,2.9-6.6,6.6-6.6c3.4,0,6.3,2.9,6.3,6.6s-2.9,6.6-6.3,6.6C1063.4,29.7,1060.5,26.8,1060.5,22.8 M1065.4,23.4h1.4l2.6,4h1.4
		l-2.6-4c1.4-0.3,2.3-0.9,2.3-2.6s-1.1-2.6-3.1-2.6h-3.4v9.1h1.4V23.4z M1065.4,22.3v-2.9h2c0.9,0,2,0.3,2,1.4
		c0,1.4-1.1,1.4-2.3,1.4H1065.4z"/>
</g>
</svg>
